
    <svg width="800" height="800" viewBox="0 0 800 800" fill="none" xmlns="http://www.w3.org/2000/svg">
        
<rect width="800" height="800" fill="#F5B718"/>

        
<path d="M536.5 344C536.5 448.507 464.719 532.5 377 532.5C289.281 532.5 217.5 448.507 217.5 344C217.5 239.493 289.281 155.5 377 155.5C464.719 155.5 536.5 239.493 536.5 344Z" fill="#3F67FA" stroke="#808080" stroke-width="5"/>
<rect x="282.5" y="480.5" width="68" height="271" fill="#3F67FA" stroke="#808080" stroke-width="5"/>
<path d="M355.12 526.25C323.539 521.174 293.93 505.228 269.998 480.407L298.223 442.579C315.842 460.853 337.641 472.593 360.892 476.33L355.12 526.25Z" fill="#3F67FA"/>

        
<path d="M379 321C379 348.614 356.614 371 329 371C301.386 371 279 348.614 279 321C279 293.386 301.386 271 329 271C356.614 271 379 293.386 379 321Z" fill="#1E1E1E"/>
<path d="M521 321C521 348.614 498.614 371 471 371C443.386 371 421 348.614 421 321C421 293.386 443.386 271 471 271C498.614 271 521 293.386 521 321Z" fill="#1E1E1E"/>
<ellipse cx="329" cy="359.5" rx="11" ry="11.5" fill="#D9D9D9"/>
<ellipse cx="471" cy="359.5" rx="11" ry="11.5" fill="#D9D9D9"/>

        
<path d="M383.559 414.5L407.5 371.229L431.441 414.5H383.559Z" stroke="black" stroke-width="7"/>

        
<path d="M290 481C421.2 489 492 449.667 511 429" stroke="black" stroke-width="5"/>

    </svg>
