
    <svg width="800" height="800" viewBox="0 0 800 800" fill="none" xmlns="http://www.w3.org/2000/svg">
        
<rect width="800" height="800" fill="#00F418"/>

        
<path d="M536.5 344C536.5 448.507 464.719 532.5 377 532.5C289.281 532.5 217.5 448.507 217.5 344C217.5 239.493 289.281 155.5 377 155.5C464.719 155.5 536.5 239.493 536.5 344Z" fill="#542B02" stroke="#808080" stroke-width="5"/>
<rect x="282.5" y="480.5" width="68" height="271" fill="#542B02" stroke="#808080" stroke-width="5"/>
<path d="M358.12 528.25C326.539 523.174 296.93 507.228 272.998 482.407L301.223 444.579C318.842 462.853 340.641 474.593 363.892 478.33L358.12 528.25Z" fill="#542B02"/>

        
<path d="M381.224 323C381.224 350.614 358.838 373 331.224 373C303.609 373 281.224 350.614 281.224 323C281.224 295.386 303.609 273 331.224 273C358.838 273 381.224 295.386 381.224 323Z" fill="#1E1E1E"/>
<path d="M523.224 323C523.224 350.614 500.838 373 473.224 373C445.609 373 423.224 350.614 423.224 323C423.224 295.386 445.609 273 473.224 273C500.838 273 523.224 295.386 523.224 323Z" fill="#1E1E1E"/>
<circle cx="331.224" cy="323" r="30" fill="#D9D9D9"/>
<g filter="url(#filter0_dd_1_171)">
<circle cx="473.224" cy="323" r="30" fill="#D9D9D9"/>
</g>
<g filter="url(#filter1_d_1_171)">
<path d="M294 323L218 293" stroke="black" stroke-width="15"/>
</g>
<line x1="506.733" y1="309.249" x2="537.733" y2="294.249" stroke="black" stroke-width="15"/>
<g filter="url(#filter2_d_1_171)">
<line x1="431.224" y1="330.5" x2="378.224" y2="330.5" stroke="black" stroke-width="15"/>
</g>
<defs>
<filter id="filter0_dd_1_171" x="439.224" y="293" width="68" height="68" filterUnits="userSpaceOnUse" color-interpolation-filters="sRGB">
<feFlood flood-opacity="0" result="BackgroundImageFix"/>
<feColorMatrix in="SourceAlpha" type="matrix" values="0 0 0 0 0 0 0 0 0 0 0 0 0 0 0 0 0 0 127 0" result="hardAlpha"/>
<feOffset dy="4"/>
<feGaussianBlur stdDeviation="2"/>
<feComposite in2="hardAlpha" operator="out"/>
<feColorMatrix type="matrix" values="0 0 0 0 0 0 0 0 0 0 0 0 0 0 0 0 0 0 0.25 0"/>
<feBlend mode="normal" in2="BackgroundImageFix" result="effect1_dropShadow_1_171"/>
<feColorMatrix in="SourceAlpha" type="matrix" values="0 0 0 0 0 0 0 0 0 0 0 0 0 0 0 0 0 0 127 0" result="hardAlpha"/>
<feOffset dy="4"/>
<feGaussianBlur stdDeviation="2"/>
<feComposite in2="hardAlpha" operator="out"/>
<feColorMatrix type="matrix" values="0 0 0 0 0 0 0 0 0 0 0 0 0 0 0 0 0 0 0.25 0"/>
<feBlend mode="normal" in2="effect1_dropShadow_1_171" result="effect2_dropShadow_1_171"/>
<feBlend mode="normal" in="SourceGraphic" in2="effect2_dropShadow_1_171" result="shape"/>
</filter>
<filter id="filter1_d_1_171" x="211.246" y="286.024" width="89.5075" height="51.9523" filterUnits="userSpaceOnUse" color-interpolation-filters="sRGB">
<feFlood flood-opacity="0" result="BackgroundImageFix"/>
<feColorMatrix in="SourceAlpha" type="matrix" values="0 0 0 0 0 0 0 0 0 0 0 0 0 0 0 0 0 0 127 0" result="hardAlpha"/>
<feOffset dy="4"/>
<feGaussianBlur stdDeviation="2"/>
<feComposite in2="hardAlpha" operator="out"/>
<feColorMatrix type="matrix" values="0 0 0 0 0 0 0 0 0 0 0 0 0 0 0 0 0 0 0.25 0"/>
<feBlend mode="normal" in2="BackgroundImageFix" result="effect1_dropShadow_1_171"/>
<feBlend mode="normal" in="SourceGraphic" in2="effect1_dropShadow_1_171" result="shape"/>
</filter>
<filter id="filter2_d_1_171" x="374.224" y="323" width="61" height="23" filterUnits="userSpaceOnUse" color-interpolation-filters="sRGB">
<feFlood flood-opacity="0" result="BackgroundImageFix"/>
<feColorMatrix in="SourceAlpha" type="matrix" values="0 0 0 0 0 0 0 0 0 0 0 0 0 0 0 0 0 0 127 0" result="hardAlpha"/>
<feOffset dy="4"/>
<feGaussianBlur stdDeviation="2"/>
<feComposite in2="hardAlpha" operator="out"/>
<feColorMatrix type="matrix" values="0 0 0 0 0 0 0 0 0 0 0 0 0 0 0 0 0 0 0.25 0"/>
<feBlend mode="normal" in2="BackgroundImageFix" result="effect1_dropShadow_1_171"/>
<feBlend mode="normal" in="SourceGraphic" in2="effect1_dropShadow_1_171" result="shape"/>
</filter>
</defs>

        
<path d="M375.762 427C339.163 427 391.14 408.531 408.762 409L419.762 372L437.762 421C431.609 428.036 410.638 427 375.762 427Z" stroke="black" stroke-width="5"/>

        
<path d="M339 448V472" stroke="black" stroke-width="5"/>
<path d="M358 457V488" stroke="black" stroke-width="5"/>
<path d="M449 458V489" stroke="black" stroke-width="5"/>
<path d="M462 450V476" stroke="black" stroke-width="5"/>
<path d="M471 447V466" stroke="black" stroke-width="5"/>
<path d="M329 444V462" stroke="black" stroke-width="5"/>
<path d="M298 425C424 601 483.656 433.959 503 425" stroke="black" stroke-width="5"/>
<path d="M298 425C424 554.393 483.656 431.586 503 425" stroke="black" stroke-width="5"/>
<path d="M298 425C424 510.531 483.656 429.354 503 425" stroke="black" stroke-width="5"/>
<path d="M375 462V497" stroke="black" stroke-width="5"/>
<path d="M396 463V503" stroke="black" stroke-width="5"/>
<path d="M416 462V502" stroke="black" stroke-width="5"/>
<path d="M434 461V497" stroke="black" stroke-width="5"/>

    </svg>
