
    <svg width="800" height="800" viewBox="0 0 800 800" fill="none" xmlns="http://www.w3.org/2000/svg">
        
<rect width="800" height="800" fill="#B4022D"/>

        
<path d="M536.5 344C536.5 448.507 464.719 532.5 377 532.5C289.281 532.5 217.5 448.507 217.5 344C217.5 239.493 289.281 155.5 377 155.5C464.719 155.5 536.5 239.493 536.5 344Z" fill="#964B00" stroke="#808080" stroke-width="5"/>
<rect x="282.5" y="480.5" width="68" height="271" fill="#964B00" stroke="#808080" stroke-width="5"/>
<path d="M354.12 525.25C322.539 520.174 292.93 504.228 268.998 479.407L297.223 441.579C314.842 459.853 336.641 471.593 359.892 475.33L354.12 525.25Z" fill="#964B00"/>

        
<path d="M379 321C379 348.614 356.614 371 329 371C301.386 371 279 348.614 279 321C279 293.386 301.386 271 329 271C356.614 271 379 293.386 379 321Z" fill="#1E1E1E"/>
<path d="M521 321C521 348.614 498.614 371 471 371C443.386 371 421 348.614 421 321C421 293.386 443.386 271 471 271C498.614 271 521 293.386 521 321Z" fill="#1E1E1E"/>
<circle cx="329" cy="321" r="30" fill="#D9D9D9"/>
<g filter="url(#filter0_dd_1_170)">
<circle cx="471" cy="321" r="30" fill="#D9D9D9"/>
</g>
<defs>
<filter id="filter0_dd_1_170" x="437" y="291" width="68" height="68" filterUnits="userSpaceOnUse" color-interpolation-filters="sRGB">
<feFlood flood-opacity="0" result="BackgroundImageFix"/>
<feColorMatrix in="SourceAlpha" type="matrix" values="0 0 0 0 0 0 0 0 0 0 0 0 0 0 0 0 0 0 127 0" result="hardAlpha"/>
<feOffset dy="4"/>
<feGaussianBlur stdDeviation="2"/>
<feComposite in2="hardAlpha" operator="out"/>
<feColorMatrix type="matrix" values="0 0 0 0 0 0 0 0 0 0 0 0 0 0 0 0 0 0 0.25 0"/>
<feBlend mode="normal" in2="BackgroundImageFix" result="effect1_dropShadow_1_170"/>
<feColorMatrix in="SourceAlpha" type="matrix" values="0 0 0 0 0 0 0 0 0 0 0 0 0 0 0 0 0 0 127 0" result="hardAlpha"/>
<feOffset dy="4"/>
<feGaussianBlur stdDeviation="2"/>
<feComposite in2="hardAlpha" operator="out"/>
<feColorMatrix type="matrix" values="0 0 0 0 0 0 0 0 0 0 0 0 0 0 0 0 0 0 0.25 0"/>
<feBlend mode="normal" in2="effect1_dropShadow_1_170" result="effect2_dropShadow_1_170"/>
<feBlend mode="normal" in="SourceGraphic" in2="effect2_dropShadow_1_170" result="shape"/>
</filter>
</defs>

        
<path d="M375.762 427C339.163 427 391.14 408.531 408.762 409L419.762 372L437.762 421C431.609 428.036 410.638 427 375.762 427Z" stroke="black" stroke-width="5"/>

        
<path d="M290 481C421.2 489 492 449.667 511 429" stroke="black" stroke-width="5"/>

    </svg>
