
    <svg width="800" height="800" viewBox="0 0 800 800" fill="none" xmlns="http://www.w3.org/2000/svg">
        
<rect width="800" height="800" fill="#F5B718"/>

        
<path d="M536.5 344C536.5 448.507 464.719 532.5 377 532.5C289.281 532.5 217.5 448.507 217.5 344C217.5 239.493 289.281 155.5 377 155.5C464.719 155.5 536.5 239.493 536.5 344Z" fill="#3F67FA" stroke="#808080" stroke-width="5"/>
<rect x="282.5" y="480.5" width="68" height="271" fill="#3F67FA" stroke="#808080" stroke-width="5"/>
<path d="M355.12 526.25C323.539 521.174 293.93 505.228 269.998 480.407L298.223 442.579C315.842 460.853 337.641 472.593 360.892 476.33L355.12 526.25Z" fill="#3F67FA"/>

        
<path d="M379 321C379 348.614 356.614 371 329 371C301.386 371 279 348.614 279 321C279 293.386 301.386 271 329 271C356.614 271 379 293.386 379 321Z" fill="#1E1E1E"/>
<path d="M521 321C521 348.614 498.614 371 471 371C443.386 371 421 348.614 421 321C421 293.386 443.386 271 471 271C498.614 271 521 293.386 521 321Z" fill="#1E1E1E"/>
<ellipse cx="329" cy="320.5" rx="11" ry="11.5" fill="#D9D9D9"/>
<g filter="url(#filter0_dd_1_169)">
<ellipse cx="471" cy="320.5" rx="11" ry="11.5" fill="#D9D9D9"/>
</g>
<defs>
<filter id="filter0_dd_1_169" x="456" y="309" width="30" height="31" filterUnits="userSpaceOnUse" color-interpolation-filters="sRGB">
<feFlood flood-opacity="0" result="BackgroundImageFix"/>
<feColorMatrix in="SourceAlpha" type="matrix" values="0 0 0 0 0 0 0 0 0 0 0 0 0 0 0 0 0 0 127 0" result="hardAlpha"/>
<feOffset dy="4"/>
<feGaussianBlur stdDeviation="2"/>
<feComposite in2="hardAlpha" operator="out"/>
<feColorMatrix type="matrix" values="0 0 0 0 0 0 0 0 0 0 0 0 0 0 0 0 0 0 0.25 0"/>
<feBlend mode="normal" in2="BackgroundImageFix" result="effect1_dropShadow_1_169"/>
<feColorMatrix in="SourceAlpha" type="matrix" values="0 0 0 0 0 0 0 0 0 0 0 0 0 0 0 0 0 0 127 0" result="hardAlpha"/>
<feOffset dy="4"/>
<feGaussianBlur stdDeviation="2"/>
<feComposite in2="hardAlpha" operator="out"/>
<feColorMatrix type="matrix" values="0 0 0 0 0 0 0 0 0 0 0 0 0 0 0 0 0 0 0.25 0"/>
<feBlend mode="normal" in2="effect1_dropShadow_1_169" result="effect2_dropShadow_1_169"/>
<feBlend mode="normal" in="SourceGraphic" in2="effect2_dropShadow_1_169" result="shape"/>
</filter>
</defs>

        
<path d="M375.762 427C339.163 427 391.14 408.531 408.762 409L419.762 372L437.762 421C431.609 428.036 410.638 427 375.762 427Z" stroke="black" stroke-width="5"/>

        
<path d="M339 448V472" stroke="black" stroke-width="5"/>
<path d="M358 457V488" stroke="black" stroke-width="5"/>
<path d="M449 458V489" stroke="black" stroke-width="5"/>
<path d="M462 450V476" stroke="black" stroke-width="5"/>
<path d="M471 447V466" stroke="black" stroke-width="5"/>
<path d="M329 444V462" stroke="black" stroke-width="5"/>
<path d="M298 425C424 601 483.656 433.959 503 425" stroke="black" stroke-width="5"/>
<path d="M298 425C424 554.393 483.656 431.586 503 425" stroke="black" stroke-width="5"/>
<path d="M298 425C424 510.531 483.656 429.354 503 425" stroke="black" stroke-width="5"/>
<path d="M375 462V497" stroke="black" stroke-width="5"/>
<path d="M396 463V503" stroke="black" stroke-width="5"/>
<path d="M416 462V502" stroke="black" stroke-width="5"/>
<path d="M434 461V497" stroke="black" stroke-width="5"/>

    </svg>
