
    <svg width="800" height="800" viewBox="0 0 800 800" fill="none" xmlns="http://www.w3.org/2000/svg">
        
<rect width="800" height="800" fill="#0C48F5"/>

        
<path d="M536.5 344C536.5 448.507 464.719 532.5 377 532.5C289.281 532.5 217.5 448.507 217.5 344C217.5 239.493 289.281 155.5 377 155.5C464.719 155.5 536.5 239.493 536.5 344Z" fill="#964B00" stroke="#808080" stroke-width="5"/>
<rect x="282.5" y="480.5" width="68" height="271" fill="#964B00" stroke="#808080" stroke-width="5"/>
<path d="M354.12 525.25C322.539 520.174 292.93 504.228 268.998 479.407L297.223 441.579C314.842 459.853 336.641 471.593 359.892 475.33L354.12 525.25Z" fill="#964B00"/>

        
<path d="M381.224 323C381.224 350.614 358.838 373 331.224 373C303.609 373 281.224 350.614 281.224 323C281.224 295.386 303.609 273 331.224 273C358.838 273 381.224 295.386 381.224 323Z" fill="#1E1E1E"/>
<path d="M523.224 323C523.224 350.614 500.838 373 473.224 373C445.609 373 423.224 350.614 423.224 323C423.224 295.386 445.609 273 473.224 273C500.838 273 523.224 295.386 523.224 323Z" fill="#1E1E1E"/>
<circle cx="331.224" cy="323" r="30" fill="#D9D9D9"/>
<g filter="url(#filter0_dd_1_171)">
<circle cx="473.224" cy="323" r="30" fill="#D9D9D9"/>
</g>
<g filter="url(#filter1_d_1_171)">
<path d="M294 323L218 293" stroke="black" stroke-width="15"/>
</g>
<line x1="506.733" y1="309.249" x2="537.733" y2="294.249" stroke="black" stroke-width="15"/>
<g filter="url(#filter2_d_1_171)">
<line x1="431.224" y1="330.5" x2="378.224" y2="330.5" stroke="black" stroke-width="15"/>
</g>
<defs>
<filter id="filter0_dd_1_171" x="439.224" y="293" width="68" height="68" filterUnits="userSpaceOnUse" color-interpolation-filters="sRGB">
<feFlood flood-opacity="0" result="BackgroundImageFix"/>
<feColorMatrix in="SourceAlpha" type="matrix" values="0 0 0 0 0 0 0 0 0 0 0 0 0 0 0 0 0 0 127 0" result="hardAlpha"/>
<feOffset dy="4"/>
<feGaussianBlur stdDeviation="2"/>
<feComposite in2="hardAlpha" operator="out"/>
<feColorMatrix type="matrix" values="0 0 0 0 0 0 0 0 0 0 0 0 0 0 0 0 0 0 0.25 0"/>
<feBlend mode="normal" in2="BackgroundImageFix" result="effect1_dropShadow_1_171"/>
<feColorMatrix in="SourceAlpha" type="matrix" values="0 0 0 0 0 0 0 0 0 0 0 0 0 0 0 0 0 0 127 0" result="hardAlpha"/>
<feOffset dy="4"/>
<feGaussianBlur stdDeviation="2"/>
<feComposite in2="hardAlpha" operator="out"/>
<feColorMatrix type="matrix" values="0 0 0 0 0 0 0 0 0 0 0 0 0 0 0 0 0 0 0.25 0"/>
<feBlend mode="normal" in2="effect1_dropShadow_1_171" result="effect2_dropShadow_1_171"/>
<feBlend mode="normal" in="SourceGraphic" in2="effect2_dropShadow_1_171" result="shape"/>
</filter>
<filter id="filter1_d_1_171" x="211.246" y="286.024" width="89.5075" height="51.9523" filterUnits="userSpaceOnUse" color-interpolation-filters="sRGB">
<feFlood flood-opacity="0" result="BackgroundImageFix"/>
<feColorMatrix in="SourceAlpha" type="matrix" values="0 0 0 0 0 0 0 0 0 0 0 0 0 0 0 0 0 0 127 0" result="hardAlpha"/>
<feOffset dy="4"/>
<feGaussianBlur stdDeviation="2"/>
<feComposite in2="hardAlpha" operator="out"/>
<feColorMatrix type="matrix" values="0 0 0 0 0 0 0 0 0 0 0 0 0 0 0 0 0 0 0.25 0"/>
<feBlend mode="normal" in2="BackgroundImageFix" result="effect1_dropShadow_1_171"/>
<feBlend mode="normal" in="SourceGraphic" in2="effect1_dropShadow_1_171" result="shape"/>
</filter>
<filter id="filter2_d_1_171" x="374.224" y="323" width="61" height="23" filterUnits="userSpaceOnUse" color-interpolation-filters="sRGB">
<feFlood flood-opacity="0" result="BackgroundImageFix"/>
<feColorMatrix in="SourceAlpha" type="matrix" values="0 0 0 0 0 0 0 0 0 0 0 0 0 0 0 0 0 0 127 0" result="hardAlpha"/>
<feOffset dy="4"/>
<feGaussianBlur stdDeviation="2"/>
<feComposite in2="hardAlpha" operator="out"/>
<feColorMatrix type="matrix" values="0 0 0 0 0 0 0 0 0 0 0 0 0 0 0 0 0 0 0.25 0"/>
<feBlend mode="normal" in2="BackgroundImageFix" result="effect1_dropShadow_1_171"/>
<feBlend mode="normal" in="SourceGraphic" in2="effect1_dropShadow_1_171" result="shape"/>
</filter>
</defs>

        
<path d="M404.001 440.006C359.001 440.006 370.334 385.339 392.001 386.006L404.001 410.006L423.001 386.006C415.435 396.006 446.881 440.006 404.001 440.006Z" stroke="black" stroke-width="5"/>

        
<path d="M327 482C417.351 435.945 460.129 479.656 474 482" stroke="black" stroke-width="5"/>

    </svg>
